<svg version="1.1"
	 xmlns="http://www.w3.org/2000/svg" xmlns:xlink="http://www.w3.org/1999/xlink" xmlns:a="http://ns.adobe.com/AdobeSVGViewerExtensions/3.0/"
	 x="0px" y="0px" width="44" height="44" viewBox="0 0 34.3 34.3" style="enable-background:new 0 0 34.3 34.3;"
	 xml:space="preserve">
<style type="text/css">
	.st0{fill:none;stroke:#FF9100;stroke-width:1.44;stroke-linecap:round;stroke-linejoin:round;stroke-miterlimit:22.9256;}
</style>
<defs>
</defs>
<polygon class="st0" points="33,16.8 30.2,13.9 13.9,30.2 16.8,33 33,16.8 "/>
<polygon class="st0" points="33.5,22.4 30.6,19.5 19.5,30.6 22.4,33.5 33.5,22.4 "/>
<polygon class="st0" points="33.6,28.1 30.7,25.2 25.2,30.7 28.1,33.6 33.6,28.1 "/>
<polygon class="st0" points="20.6,23.5 23.5,20.6 13.8,10.9 10.9,13.8 20.6,23.5 "/>
<polygon class="st0" points="17.5,1.3 20.4,4.2 4.2,20.4 1.3,17.5 17.5,1.3 "/>
<polygon class="st0" points="11.9,0.8 14.8,3.7 3.7,14.8 0.8,11.9 11.9,0.8 "/>
<polygon class="st0" points="6.3,0.7 9.1,3.6 3.6,9.1 0.7,6.3 6.3,0.7 "/>
</svg>
