<svg xmlns="http://www.w3.org/2000/svg" width="44" height="44" viewBox="0 0 57 41.469">
  <defs>
    <style>
      .cls-1 {
        fill: #ff9100;
        fill-rule: evenodd;
      }
    </style>
  </defs>
  <path id="icon-money.svg" class="cls-1" d="M518.854,951.948a2.663,2.663,0,0,0-.687-0.37,5.539,5.539,0,0,0-.634-0.246v4.1a2.259,2.259,0,0,0,1.391-.556,1.86,1.86,0,0,0,.6-1.541,1.7,1.7,0,0,0-.184-0.828A1.733,1.733,0,0,0,518.854,951.948Zm-23.876-19.632h44.048a1.3,1.3,0,1,0,0-2.591H494.978A1.3,1.3,0,1,0,494.978,932.316Zm38.866,25.911h-2.591a1.3,1.3,0,1,0,0,2.591h2.591A1.3,1.3,0,0,0,533.844,958.227ZM500.16,927.134h33.684a1.3,1.3,0,0,0,0-2.591H500.16A1.3,1.3,0,1,0,500.16,927.134Zm42.753,7.773H491.091A2.591,2.591,0,0,0,488.5,937.5v25.911A2.591,2.591,0,0,0,491.091,966h51.822a2.591,2.591,0,0,0,2.591-2.591V937.5A2.591,2.591,0,0,0,542.913,934.907ZM492.387,937.5a1.3,1.3,0,1,1-1.3,1.3A1.295,1.295,0,0,1,492.387,937.5Zm0,25.911a1.3,1.3,0,1,1,1.3-1.3A1.3,1.3,0,0,1,492.387,963.409Zm49.23,0a1.3,1.3,0,1,1,1.3-1.3A1.295,1.295,0,0,1,541.617,963.409Zm1.3-4.944a3.851,3.851,0,0,0-4.945,4.944H496.035a3.844,3.844,0,0,0,.238-1.3,3.849,3.849,0,0,0-5.182-3.648V942.442a3.849,3.849,0,0,0,4.944-4.944h41.933a3.85,3.85,0,0,0,4.945,4.944v16.023Zm-1.3-18.376a1.3,1.3,0,1,1,1.3-1.3A1.294,1.294,0,0,1,541.617,940.089Zm-26.947,7.068a1.424,1.424,0,0,0,.173.722,1.779,1.779,0,0,0,.446.511,2.33,2.33,0,0,0,.625.343,4.182,4.182,0,0,0,.574.22V945.43a1.884,1.884,0,0,0-1.3.4A1.576,1.576,0,0,0,514.67,947.157ZM517,940.089a10.365,10.365,0,1,0,10.364,10.365A10.366,10.366,0,0,0,517,940.089Zm4.183,14.685a3.4,3.4,0,0,1-.878,1.216,3.84,3.84,0,0,1-1.305.739,4.7,4.7,0,0,1-1.469.292v1.2h-1.045v-1.2a4.526,4.526,0,0,1-1.574-.3,3.824,3.824,0,0,1-1.339-.8,3.493,3.493,0,0,1-.862-1.276,4.41,4.41,0,0,1-.286-1.744h1.983a2.83,2.83,0,0,0,.5,1.832,1.83,1.83,0,0,0,1.574.705v-4.264a11.655,11.655,0,0,1-1.27-.467,5.062,5.062,0,0,1-1.27-.7,3.306,3.306,0,0,1-.914-1.083,3.423,3.423,0,0,1-.346-1.621,3.279,3.279,0,0,1,.321-1.488,3.144,3.144,0,0,1,.87-1.075,4.434,4.434,0,0,1,2.609-.888v-1.157h1.045v1.157a4.079,4.079,0,0,1,1.33.211,3.408,3.408,0,0,1,1.208.634,3.037,3.037,0,0,1,.819,1.074,3.564,3.564,0,0,1,.3,1.516h-1.982a2.128,2.128,0,0,0-.461-1.376,1.422,1.422,0,0,0-1.217-.475v3.716a14.165,14.165,0,0,1,1.382.494,5.174,5.174,0,0,1,1.322.722,3.181,3.181,0,0,1,1.27,2.7A4.222,4.222,0,0,1,521.185,954.774Zm-18.434-14.685H500.16a1.3,1.3,0,1,0,0,2.591h2.591A1.3,1.3,0,0,0,502.751,940.089Z" transform="translate(-488.5 -924.531)"/>
</svg>
