<svg xmlns="http://www.w3.org/2000/svg" width="44" height="44" viewBox="0 0 44 44">
  <defs>
    <style>
      .cls-1 {
        fill: #ff9100;
        fill-rule: evenodd;
      }
    </style>
  </defs>
  <path id="icon-coffee" class="cls-1" d="M1013.5,944h-2v-3a2,2,0,0,0-2-2h-32a2,2,0,0,0-2,2v12a13.978,13.978,0,0,0,6.816,12H976.5a1,1,0,0,0,0,2h34a1,1,0,0,0,0-2h-5.81a14,14,0,0,0,6.48-9h2.33A6,6,0,0,0,1013.5,944Zm-16,21h-8a11.959,11.959,0,0,1-8.926-4h25.856A11.971,11.971,0,0,1,997.5,965Zm12-12a11.963,11.963,0,0,1-1.62,6H979.119a11.921,11.921,0,0,1-1.619-6V941h32v12Zm4,1h-2.05c0.02-.331.05-0.662,0.05-1v-7h2A4,4,0,0,1,1013.5,954Zm-14-19a1,1,0,0,0,1-1v-6a1,1,0,0,0-2,0v6A1,1,0,0,0,999.5,935Zm6,2a1,1,0,0,0,1-1V926a1,1,0,0,0-2,0v10A1,1,0,0,0,1005.5,937Zm-12-2a1,1,0,0,0,1-1V924a1,1,0,0,0-2,0v10A1,1,0,0,0,993.5,935Zm-12,0a1,1,0,0,0,1-1v-6a1,1,0,0,0-2,0v6A1,1,0,0,0,981.5,935Zm6,2a1,1,0,0,0,1-1V926a1,1,0,0,0-2,0v10A1,1,0,0,0,987.5,937Z" transform="translate(-975.5 -923)"/>
</svg>
