<svg version="1.1"
	 xmlns="http://www.w3.org/2000/svg" xmlns:xlink="http://www.w3.org/1999/xlink" xmlns:a="http://ns.adobe.com/AdobeSVGViewerExtensions/3.0/"
	 x="0px" y="0px" width="44" height="44" viewBox="0 0 99.6 86" style="enable-background:new 0 0 99.6 86;"
	 xml:space="preserve">
<style type="text/css">
	.st0{fill:none;stroke:#FF9100;stroke-width:3;}
</style>
<defs>
</defs>
<g>
	<g>
		<path class="st0" d="M98,60.5V4.1c0-1.5-1.2-2.6-2.6-2.6H4.2c-1.5,0-2.6,1.2-2.6,2.6v56.4H98z"/>
		<rect x="7.1" y="7.1" class="st0" width="85.4" height="47.8"/>
		<path class="st0" d="M1.5,60.5v8.1c0,1.6,1.6,3.3,3.2,3.3h90.9c1.6,0,2.5-1.6,2.5-3.2v-8.3H1.5z"/>
		<path class="st0" d="M64.9,84.5c-0.9-0.4-1.9-0.8-2.5-1.2c-1.1-0.6-1.3-0.7-1.7-2.7c-0.4-2.2-0.1-6.6-0.2-8.6L39.1,72
			c-0.2,2,0.2,6.5-0.2,8.7c-0.4,2-0.7,2.1-1.7,2.7c-0.6,0.3-1.6,0.8-2.5,1.2l0,0"/>
		<line class="st0" x1="31.9" y1="84.5" x2="67.6" y2="84.5"/>
	</g>
	<g>
		<line class="st0" x1="49.1" y1="17.2" x2="49.1" y2="11.6"/>
		<line class="st0" x1="43.8" y1="20.6" x2="38.9" y2="17.8"/>
		<line class="st0" x1="44.1" y1="26.9" x2="39.3" y2="29.7"/>
		<line class="st0" x1="49.7" y1="29.8" x2="49.7" y2="35.3"/>
		<line class="st0" x1="54.6" y1="20.1" x2="59.5" y2="17.3"/>
		<g>
			<line class="st0" x1="66.8" y1="38.9" x2="74.8" y2="46.9"/>
			<polygon class="st0" points="52.3,24.4 75.7,34.3 66.3,38.4 62.2,47.8 			"/>
		</g>
	</g>
</g>
</svg>
