<svg xmlns="http://www.w3.org/2000/svg" width="66.624" height="60.562" viewBox="0 0 66.624 60.562">
  <defs>
    <style>
      .cls-1 {
        fill: #ff9100;
        fill-rule: evenodd;
      }
    </style>
  </defs>
  <path id="icon-work.svg" class="cls-1" d="M947.311,657.636H927.742a1.514,1.514,0,1,1,0-3.027h22.6L962.446,642.5H935.31V615.256h42.38v12l3.027-3.027V613.742a1.512,1.512,0,0,0-1.513-1.513H933.8a1.512,1.512,0,0,0-1.513,1.513v37.84h-4.541a4.541,4.541,0,1,0,0,9.081h16.542ZM989.8,630.391a4.541,4.541,0,0,0-7.752-3.21L944.208,665.02a4.541,4.541,0,1,0,6.422,6.421L988.469,633.6A4.53,4.53,0,0,0,989.8,630.391Zm-3.471,1.07-7.254,7.255-2.141-2.14,7.255-7.255A1.513,1.513,0,1,1,986.328,631.461Zm-1.07,20.121h-4.541v-5.947l-8.974,8.974h13.515a1.514,1.514,0,1,1,0,3.027H968.716l-3.027,3.027h19.569A4.541,4.541,0,1,0,985.258,651.582Z" transform="translate(-923.188 -612.219)"/>
</svg>
