<?xml version="1.0" encoding="utf-8"?>
<!-- Generator: Adobe Illustrator 17.1.0, SVG Export Plug-In . SVG Version: 6.00 Build 0)  -->
<!DOCTYPE svg PUBLIC "-//W3C//DTD SVG 1.1//EN" "http://www.w3.org/Graphics/SVG/1.1/DTD/svg11.dtd">
<svg version="1.1" id="Capa_1" xmlns="http://www.w3.org/2000/svg" xmlns:xlink="http://www.w3.org/1999/xlink" x="0px" y="0px"
	 viewBox="0 0 849 304" enable-background="new 0 0 849 304" xml:space="preserve">
<g>
	<g>
		<g>
			<polygon fill="#F4C141" points="34.6,96.8 34.6,59.2 2.1,78 			"/>
			<polygon fill="#F5AF00" points="67,78 67,40.5 34.6,59.2 			"/>
			<polygon fill="#F5C74A" points="34.6,96.8 67,78 34.6,59.2 			"/>
			<polygon fill="#F4C141" points="67,115.5 67,78 34.6,96.8 			"/>
			<polygon fill="#F1A100" points="99.5,59.2 99.5,21.8 67,40.5 			"/>
			<polygon fill="#F5AF00" points="99.5,96.8 99.5,59.2 67,78 			"/>
			<polygon fill="#F1A100" points="132,78 132,40.5 99.5,59.2 			"/>
			<polygon fill="#F3A500" points="99.5,59.2 132,40.5 99.5,21.8 			"/>
			<polygon fill="#F5BA28" points="67,78 99.5,59.2 67,40.5 			"/>
			<polygon fill="#F5BA28" points="99.5,96.8 132,78 99.5,59.2 			"/>
			<polygon fill="#F5C74A" points="67,115.5 99.5,96.8 67,78 			"/>
			<polygon fill="#EB9A05" points="132,40.5 132,3 99.5,21.8 			"/>
			<polygon fill="#F1A100" points="164.5,59.2 164.5,21.8 132,40.5 			"/>
			<polygon fill="#F5AF00" points="164.5,96.8 164.5,59.2 132,78 			"/>
			<polygon fill="#F5AF00" points="197,78 197,40.5 164.5,59.2 			"/>
			<polygon fill="#F3A500" points="164.5,59.2 197,40.5 164.5,21.8 			"/>
			<polygon fill="#F3A500" points="132,78 164.5,59.2 132,40.5 			"/>
			<polygon fill="#F5BA28" points="164.5,96.8 197,78 164.5,59.2 			"/>
			<polygon fill="#ED9C03" points="132,40.5 164.5,21.8 132,3 			"/>
			<polygon fill="#F4C141" points="197,115.5 197,78 164.5,96.8 			"/>
			<polygon fill="#F4C141" points="229.4,96.8 229.4,59.2 197,78 			"/>
			<polygon fill="#F5BA28" points="197,78 229.4,59.2 197,40.5 			"/>
			<polygon fill="#F5C74A" points="229.4,96.8 261.9,78 229.4,59.2 			"/>
			<polygon fill="#F5C74A" points="197,115.5 229.4,96.8 197,78 			"/>
		</g>
	</g>
	<g>
		<polygon fill="#1B7FB2" points="164.5,246.8 164.5,284.2 197,265.5 		"/>
		<polygon fill="#288BB7" points="164.5,209.2 164.5,246.8 197,228 		"/>
		<polygon fill="#288BB7" points="132,228 132,265.5 164.5,246.8 		"/>
		<polygon fill="#1F84B6" points="164.5,246.8 132,265.5 164.5,284.2 		"/>
		<polygon fill="#1F84B6" points="197,228 164.5,246.8 197,265.5 		"/>
		<polygon fill="#2A91B8" points="164.5,209.2 132,228 164.5,246.8 		"/>
		<polygon fill="#1B7FB2" points="132,265.5 132,303 164.5,284.2 		"/>
		<polygon fill="#1B7FB2" points="229.4,96.8 229.4,134.2 261.9,115.5 		"/>
		<polygon fill="#1F84B6" points="261.9,115.5 229.4,134.2 261.9,153 		"/>
		<polygon fill="#1F84B6" points="261.9,78 229.4,96.8 261.9,115.5 		"/>
		<polygon fill="#1B7FB2" points="229.4,134.2 229.4,171.8 261.9,153 		"/>
		<polygon fill="#288BB7" points="197,153 197,190.5 229.4,171.8 		"/>
		<polygon fill="#3198BA" points="164.5,171.8 164.5,209.2 197,190.5 		"/>
		<polygon fill="#2A91B8" points="197,190.5 164.5,209.2 197,228 		"/>
		<polygon fill="#329FBE" points="197,153 164.5,171.8 197,190.5 		"/>
		<polygon fill="#288BB7" points="197,115.5 197,153 229.4,134.2 		"/>
		<polygon fill="#329FBE" points="197,115.5 164.5,134.2 197,153 		"/>
		<polygon fill="#2A91B8" points="229.4,96.8 197,115.5 229.4,134.2 		"/>
		<polygon fill="#2A91B8" points="229.4,134.2 197,153 229.4,171.8 		"/>
		<polygon fill="#3198BA" points="164.5,134.2 164.5,171.8 197,153 		"/>
		<polygon fill="#3198BA" points="132,190.5 132,228 164.5,209.2 		"/>
		<polygon fill="#34A5BE" points="132,153 132,190.5 164.5,171.8 		"/>
		<polygon fill="#329FBE" points="164.5,171.8 132,190.5 164.5,209.2 		"/>
		<polygon fill="#36AAC0" points="164.5,134.2 132,153 164.5,171.8 		"/>
	</g>
	<g>
		<polygon fill="#E88800" points="34.6,134.2 34.6,96.8 2.1,115.5 		"/>
		<polygon fill="#E67700" points="34.6,171.8 34.6,134.2 2.1,153 		"/>
		<polygon fill="#E88800" points="67,153 67,115.5 34.6,134.2 		"/>
		<polygon fill="#E99100" points="34.6,134.2 67,115.5 34.6,96.8 		"/>
		<polygon fill="#E68000" points="2.1,153 34.6,134.2 2.1,115.5 		"/>
		<polygon fill="#E68000" points="34.6,171.8 67,153 34.6,134.2 		"/>
		<polygon fill="#E99100" points="2.1,115.5 34.6,96.8 2.1,78 		"/>
		<polygon fill="#DF6700" points="34.6,209.2 34.6,171.8 2.1,190.5 		"/>
		<polygon fill="#E47200" points="2.1,190.5 34.6,171.8 2.1,153 		"/>
		<polygon fill="#DC5F07" points="2.1,228 34.6,209.2 2.1,190.5 		"/>
		<polygon fill="#DA5A10" points="34.6,246.8 34.6,209.2 2.1,228 		"/>
		<polygon fill="#E67700" points="67,190.5 67,153 34.6,171.8 		"/>
		<polygon fill="#DF6700" points="67,228 67,190.5 34.6,209.2 		"/>
		<polygon fill="#E47200" points="34.6,209.2 67,190.5 34.6,171.8 		"/>
		<polygon fill="#E68000" points="67,228 99.5,209.2 67,190.5 		"/>
		<polygon fill="#DF6700" points="67,265.5 67,228 34.6,246.8 		"/>
		<polygon fill="#E67700" points="99.5,284.2 99.5,246.8 67,265.5 		"/>
		<polygon fill="#E68000" points="67,265.5 99.5,246.8 67,228 		"/>
		<polygon fill="#E47200" points="34.6,246.8 67,228 34.6,209.2 		"/>
		<polygon fill="#E67700" points="99.5,246.8 99.5,209.2 67,228 		"/>
		<polygon fill="#E88800" points="132,265.5 132,228 99.5,246.8 		"/>
		<polygon fill="#E88800" points="132,303 132,265.5 99.5,284.2 		"/>
		<polygon fill="#E99100" points="99.5,284.2 132,265.5 99.5,246.8 		"/>
		<polygon fill="#E99100" points="99.5,246.8 132,228 99.5,209.2 		"/>
	</g>
</g>
<g>
	<path fill="#FFFFFF" d="M326.9,66.4h17.6v73.9h34.1v13.8h-51.7V66.4z"/>
	<path fill="#FFFFFF" d="M389.6,92.8c6.5-3,15.3-4.9,22.5-4.9c19.7,0,27.9,8.2,27.9,27.3v8.3c0,6.5,0.1,11.4,0.3,16.2
		c0.1,4.9,0.4,9.4,0.8,14.5h-14.8c-0.6-3.4-0.6-7.7-0.8-9.7h-0.3c-3.9,7.2-12.3,11.2-20,11.2c-11.4,0-22.6-6.9-22.6-19.2
		c0-9.7,4.7-15.3,11.1-18.5c6.4-3.1,14.7-3.8,21.8-3.8h9.3c0-10.4-4.7-14-14.6-14c-7.2,0-14.3,2.8-20,7L389.6,92.8z M409.3,143.3
		c5.2,0,9.2-2.3,11.8-5.8c2.8-3.6,3.5-8.3,3.5-13.3h-7.3c-7.5,0-18.7,1.3-18.7,11.2C398.6,140.9,403.3,143.3,409.3,143.3z"/>
	<path fill="#FFFFFF" d="M514.7,103.3c-3-1.4-6.3-2.4-11.4-2.4c-10.4,0-17.1,8.3-17.1,20.5c0,11.9,5.7,21.1,17.5,21.1
		c4.8,0,10.1-1.8,13-3l0.8,14c-4.9,1.5-9.9,2.1-16.8,2.1c-21.2,0-31.9-14.5-31.9-34.2c0-18.7,11.1-33.6,31.3-33.6
		c6.8,0,11.7,0.8,16.3,2.1L514.7,103.3z"/>
	<path fill="#FFFFFF" d="M526.2,92.8c6.5-3,15.3-4.9,22.5-4.9c19.7,0,27.9,8.2,27.9,27.3v8.3c0,6.5,0.1,11.4,0.3,16.2
		c0.1,4.9,0.4,9.4,0.8,14.5h-14.8c-0.6-3.4-0.6-7.7-0.8-9.7h-0.3c-3.9,7.2-12.3,11.2-20,11.2c-11.4,0-22.6-6.9-22.6-19.2
		c0-9.7,4.7-15.3,11.1-18.5c6.4-3.1,14.7-3.8,21.8-3.8h9.3c0-10.4-4.7-14-14.6-14c-7.2,0-14.3,2.8-20,7L526.2,92.8z M545.9,143.3
		c5.2,0,9.2-2.3,11.8-5.8c2.8-3.6,3.5-8.3,3.5-13.3h-7.3c-7.5,0-18.7,1.3-18.7,11.2C535.2,140.9,539.9,143.3,545.9,143.3z"/>
	<path fill="#FFFFFF" d="M624.9,102.9c-5.2-1.8-8.9-2.8-15.1-2.8c-4.5,0-9.9,1.6-9.9,7.2c0,10.3,29.3,3.8,29.3,27.2
		c0,15.1-13.5,21.1-27.2,21.1c-6.4,0-13-1.1-19.1-2.8l1-13.8c5.3,2.6,10.8,4.3,16.6,4.3c4.3,0,11.1-1.6,11.1-7.9
		c0-12.7-29.3-4-29.3-27.4c0-14,12.2-20.1,25.4-20.1c7.9,0,13.1,1.3,18.4,2.4L624.9,102.9z"/>
	<path fill="#FFFFFF" d="M639.2,92.8c6.5-3,15.3-4.9,22.5-4.9c19.7,0,27.9,8.2,27.9,27.3v8.3c0,6.5,0.1,11.4,0.3,16.2
		c0.1,4.9,0.4,9.4,0.8,14.5h-14.8c-0.6-3.4-0.6-7.7-0.8-9.7h-0.3c-3.9,7.2-12.3,11.2-20,11.2c-11.4,0-22.6-6.9-22.6-19.2
		c0-9.7,4.7-15.3,11.1-18.5c6.4-3.1,14.7-3.8,21.8-3.8h9.3c0-10.4-4.7-14-14.6-14c-7.2,0-14.3,2.8-20,7L639.2,92.8z M658.9,143.3
		c5.2,0,9.2-2.3,11.8-5.8c2.8-3.6,3.5-8.3,3.5-13.3H667c-7.5,0-18.7,1.3-18.7,11.2C648.3,140.9,652.9,143.3,658.9,143.3z"/>
	<path fill="#FFFFFF" d="M765.4,146.8h-0.3c-5,6.3-11.9,8.8-19.9,8.8c-19.9,0-27.2-16.3-27.2-34.1c0-17.9,7.3-33.7,27.2-33.7
		c8.4,0,14.3,2.9,19.4,9.1h0.3V59.8h16.8v94.3h-16.3V146.8z M750,142.6c11.2,0,14.8-11.8,14.8-21c0-9.1-4.3-20.6-15.1-20.6
		c-10.9,0-14,11.9-14,20.6C735.8,130.5,738.9,142.6,750,142.6z"/>
	<path fill="#FFFFFF" d="M841.5,150.5c-6.2,3.4-13.2,5.2-22.3,5.2c-21.4,0-33.8-12.3-33.8-33.6c0-18.7,9.9-34.2,30-34.2
		c24,0,30.8,16.5,30.8,39.1h-44.8c0.8,10.4,8,16.3,18.5,16.3c8.2,0,15.2-3,21.5-6.5V150.5z M830.2,115.4
		c-0.5-8.2-4.3-15.2-13.7-15.2c-9.4,0-14.2,6.5-15,15.2H830.2z"/>
	<path fill="#FFFFFF" d="M326.9,175.7h16.8V270h-16.8V175.7z"/>
	<path fill="#FFFFFF" d="M382.2,203.7c19.2,0,33.9,13,33.9,34.3c0,18.6-12.4,33.4-33.9,33.4c-21.4,0-33.8-14.8-33.8-33.4
		C348.4,216.7,363.1,203.7,382.2,203.7z M382.2,258.4c13,0,16.3-11.6,16.3-22.4c0-9.9-5.3-19.2-16.3-19.2
		c-10.9,0-16.2,9.6-16.2,19.2C366,246.7,369.4,258.4,382.2,258.4z"/>
	<path fill="#FFFFFF" d="M463.2,218.8c-5.2-1.8-8.9-2.8-15.1-2.8c-4.5,0-9.9,1.6-9.9,7.2c0,10.3,29.3,3.8,29.3,27.2
		c0,15.1-13.5,21.1-27.2,21.1c-6.4,0-13-1.1-19.1-2.8l1-13.8c5.3,2.6,10.8,4.3,16.6,4.3c4.3,0,11.1-1.6,11.1-7.9
		c0-12.7-29.3-4-29.3-27.4c0-14,12.2-20.1,25.4-20.1c7.9,0,13.1,1.3,18.4,2.4L463.2,218.8z"/>
	<path fill="#FFFFFF" d="M491.6,205.2h16.1v9.2h0.3c3.8-6.3,10.2-10.7,20.1-10.7c19.9,0,27.2,15.8,27.2,33.7
		c0,17.7-7.3,34.1-27.5,34.1c-7.2,0-13.1-1.8-19-8.9h-0.3v33.8h-16.8V205.2z M508.6,237.4c0,9.2,3.6,21,14.8,21
		c11.1,0,14.2-12.1,14.2-21c0-8.7-3-20.6-14-20.6C512.9,216.8,508.6,228.4,508.6,237.4z"/>
	<path fill="#FFFFFF" d="M561.8,177.3h16.8v16.1h-16.8V177.3z M561.8,205.2h16.8V270h-16.8V205.2z"/>
	<path fill="#FFFFFF" d="M584.3,205.2h19.9l12.7,21.1l12.4-21.1h17.9L627.8,236l21.9,33.9h-20.1l-14.5-24.1L600.6,270h-18.5
		l22.3-33.9L584.3,205.2z"/>
	<path fill="#FFFFFF" d="M701.7,266.3c-6.2,3.4-13.2,5.2-22.3,5.2c-21.4,0-33.8-12.3-33.8-33.6c0-18.7,9.9-34.2,30-34.2
		c24,0,30.8,16.5,30.8,39.1h-44.8c0.8,10.4,8,16.3,18.5,16.3c8.2,0,15.2-3,21.5-6.5V266.3z M690.3,231.2
		c-0.5-8.2-4.3-15.2-13.7-15.2c-9.4,0-14.2,6.5-15,15.2H690.3z"/>
	<path fill="#FFFFFF" d="M712.7,175.7h16.8V270h-16.8V175.7z"/>
	<path fill="#FFFFFF" d="M790.5,266.3c-6.2,3.4-13.2,5.2-22.3,5.2c-21.4,0-33.8-12.3-33.8-33.6c0-18.7,9.9-34.2,30.1-34.2
		c24,0,30.8,16.5,30.8,39.1h-44.8c0.8,10.4,8,16.3,18.5,16.3c8.2,0,15.2-3,21.5-6.5V266.3z M779.2,231.2
		c-0.5-8.2-4.3-15.2-13.7-15.2c-9.4,0-14.2,6.5-15,15.2H779.2z"/>
	<path fill="#FFFFFF" d="M842.6,218.8c-5.2-1.8-8.9-2.8-15.1-2.8c-4.5,0-9.9,1.6-9.9,7.2c0,10.3,29.3,3.8,29.3,27.2
		c0,15.1-13.5,21.1-27.2,21.1c-6.4,0-13-1.1-19.1-2.8l1-13.8c5.3,2.6,10.8,4.3,16.6,4.3c4.3,0,11.1-1.6,11.1-7.9
		c0-12.7-29.3-4-29.3-27.4c0-14,12.2-20.1,25.4-20.1c7.9,0,13.1,1.3,18.4,2.4L842.6,218.8z"/>
</g>
</svg>
