<?xml version="1.0" encoding="utf-8"?>
<!-- Generator: Adobe Illustrator 17.1.0, SVG Export Plug-In . SVG Version: 6.00 Build 0)  -->
<!DOCTYPE svg PUBLIC "-//W3C//DTD SVG 1.1//EN" "http://www.w3.org/Graphics/SVG/1.1/DTD/svg11.dtd">
<svg version="1.1" id="negra" xmlns="http://www.w3.org/2000/svg" xmlns:xlink="http://www.w3.org/1999/xlink" x="0px" y="0px"
	 viewBox="0 0 89.4 56.5" enable-background="new 0 0 89.4 56.5" xml:space="preserve">
<g>
	<path fill="#FFFFFF" d="M89.3,0.3C80.5,18.1,61.8,35,50.9,42.8c-5.1,4-6,7.4-6.2,8.7c-0.1-1.3-1.1-4.7-6.2-8.7
		C27.6,35,9,18.1,0.2,0.3c0,0-1.4,24.6,42,48.8l-7.4,3.8c0,0,3.8,3.4,9.9,3.5v0c0,0,0,0,0,0s0,0,0,0v0c6,0,9.9-3.5,9.9-3.5l-7.4-3.8
		C90.7,24.9,89.3,0.3,89.3,0.3z"/>
	<path fill="#FFFFFF" d="M42.6,44.2c0,0,1.4,0.9,2.1,0.9s2.1-0.9,2.1-0.9s-1.1,2.2-2.1,3.4C44.7,47.6,42.9,45,42.6,44.2z"/>
</g>
</svg>
