<svg xmlns="http://www.w3.org/2000/svg" xmlns:xlink="http://www.w3.org/1999/xlink" preserveAspectRatio="xMidYMid" width="13.16" height="14.531" viewBox="0 0 13.16 14.531">
  <defs>
    <style>
      .cls-1 {
        fill: #444;
        fill-rule: evenodd;
      }
    </style>
  </defs>
  <path d="M12.654,11.650 L8.795,7.240 L12.654,2.830 C13.310,2.173 13.310,1.110 12.654,0.454 C11.998,-0.201 10.935,-0.201 10.279,0.455 L6.569,4.695 L2.858,0.455 C2.203,-0.201 1.140,-0.201 0.483,0.454 C-0.172,1.110 -0.172,2.173 0.483,2.830 L4.342,7.240 L0.483,11.650 C-0.172,12.306 -0.172,13.369 0.483,14.025 C1.139,14.681 2.202,14.681 2.858,14.025 L6.569,9.784 L10.279,14.025 C10.935,14.681 11.999,14.681 12.655,14.025 C13.310,13.369 13.310,12.306 12.654,11.650 Z" class="cls-1"/>
</svg>
