<svg xmlns="http://www.w3.org/2000/svg" xmlns:xlink="http://www.w3.org/1999/xlink" preserveAspectRatio="xMidYMid" width="29.15" height="26.219" viewBox="0 0 29.15 26.219">
  <defs>
    <style>
      .cls-1 {
        fill: #fff;
        fill-rule: evenodd;
      }
    </style>
  </defs>
  <path d="M26.234,-0.003 L2.919,-0.003 C1.316,-0.003 0.005,1.308 0.005,2.911 L0.005,20.397 C0.005,22.000 1.316,23.282 2.919,23.282 L8.719,23.282 L8.719,20.426 L2.890,20.426 L2.890,6.991 L26.263,6.991 L26.263,20.426 L20.434,20.426 L20.434,23.282 L26.234,23.282 C27.837,23.282 29.148,22.000 29.148,20.397 L29.148,2.911 C29.148,1.308 27.837,-0.003 26.234,-0.003 ZM3.793,4.849 C3.189,4.849 2.700,4.373 2.700,3.785 C2.700,3.198 3.189,2.722 3.793,2.722 C4.397,2.722 4.886,3.198 4.886,3.785 C4.886,4.373 4.397,4.849 3.793,4.849 ZM6.708,4.849 C6.104,4.849 5.615,4.373 5.615,3.785 C5.615,3.198 6.104,2.722 6.708,2.722 C7.312,2.722 7.800,3.198 7.800,3.785 C7.800,4.373 7.312,4.849 6.708,4.849 ZM26.263,4.689 L8.719,4.689 L8.719,2.882 L26.263,2.882 L26.263,4.689 ZM14.501,10.450 L7.430,17.476 L11.802,17.476 L11.802,26.226 L17.199,26.226 L17.199,17.476 L21.571,17.476 L14.501,10.450 Z" class="cls-1"/>
</svg>
